<?xml version="1.0" encoding="UTF-8"?>
<svg id="Layer_1" xmlns="http://www.w3.org/2000/svg" version="1.1" viewBox="0 0 1200 1200">
  <!-- Generator: Adobe Illustrator 29.8.1, SVG Export Plug-In . SVG Version: 2.1.1 Build 2)  -->
  <defs>
    <style>
      .st0 {
        fill: #b38b65;
      }
    </style>
  </defs>
  <g>
    <path class="st0" d="M937.4,467.67c-6.78-10.51-14.57-20.37-23.29-29.44-5.85-6.31-11.94-12.42-18.84-17.51-7.79-6.3-17.15-14.01-25.87-18.72-15.19-7.43-30.73-14.15-46.93-19.1-33.41-10.7-73.28-11.11-106.47-4.96-10.06,1.97-20.38,7.13-30.42,9.33-7.31,1.6-10.53,1.42-16.68.19-7.36-1.43-14.98-2.43-22.26-4.29-49.13-12.9-96.37-37.21-136.74-67.99-2.47-1.85-4.96-3.64-7.95-4.37-6.18-1.59-12.32,3.42-15.1,9.13-2.79,5.81-.98,10.89,3.94,14.43,31.26,21.63,67.52,34.57,103.2,47,3.91,1.31,8.16,3.28,8.22,7.76.12,2.16-.56,4.51-1.11,6.65-2.1,7.61-3.36,15.43-4.25,23.29-.43,3.87-.43,8.24,3.11,9.6,8.42,2.46,9.84-5.79,11.42-13.3,2.31-8.98,4.31-19.38,12.54-24.1,5.16-2.77,12.02-2.82,17.86-2.62,88.6,6.16,186.49,67.8,243.86,134.47,2.02,3.12-2.91-.14-3.99-.96-20.24-16-40.1-32.8-62.06-46.81-43.01-28.41-89.49-50.49-140-62.89-2.67-.68-6.62-1.42-8.53.04-1.73,1.17-2.23,3.82-2.06,7.16,5.68,72.16,47.23,133.13,109.1,168.95,32.54,18.66,69.09,30.3,106.49,33.55,30.3,3.04,61.08,3.21,90.84,10.25,2.75.64,6.19,1.55,8.51.08,2.12-1.37,2.07-5.72,1.78-8.55-4.47-55.28-17.83-109.68-48.21-156.1l-.13-.19Z"/>
    <path class="st0" d="M373.81,475.49c-11.8,7.95-33.31,24.1-51.32,37.7-21.06,16,2.07-8.02,7.09-12.38,55.03-50.65,121.37-89.65,194.24-107.54,15.2-4.27-10.2-11.66-15.35-13.36-29.05-7.86-58.01-11.16-85.42-9.3-131.52,8.44-195.85,116.59-208.77,238.24-.26,3.02-.33,7.09,1.07,8.76,2.04,2.78,6.08,1.73,9.12,1.11,4.23-.95,8.55-1.8,12.85-2.53,12.98-2.11,25.88-2.74,39.02-3.16,7.11-.19,13.22-.97,20.15-1.06,9.36-.16,17.98-1.34,27.24-1.77,104.73-6,201.32-82.67,215.94-189.03.43-2.8.82-6.82-.38-8.69-1.47-2.88-6.08-2.44-9.22-1.82-55.7,10.35-108.32,34.74-156.12,64.75l-.13.08Z"/>
    <path class="st0" d="M744.12,688.02c4.59-95.01-57.41-175.2-138.48-179.11-81.07-3.91-150.5,69.93-155.09,164.94-3.47,71.87,31.17,135.25,83.34,163.56,19.97,10.84,36.17,27.5,46.57,47.7h0c2.85,5.54,10.63,5.92,14,.68h0c12.3-19.11,30.03-34.13,50.95-42.99,54.65-23.15,95.24-82.9,98.71-154.77Z"/>
  </g>
  <g>
    <path class="st0" d="M483.61,973c1.79.56,4.01,1.73,6.64,3.52.32.21.58.35.79.42.17.05.75.06,1.71.02.31-.02.62.02.94.12,1.17.36,2.11,1.67,2.84,3.92s.83,4.21.31,5.88c-.3.98-.85,1.71-1.64,2.2-.79.49-1.6.6-2.44.34-.7-.22-1.22-.53-1.57-.94-.35-.41-1.05-1.54-2.1-3.37-1.48-2.6-3.24-4.21-5.25-4.84-.98-.3-1.83-.31-2.56-.02-.73.29-1.21.82-1.45,1.58-.47,1.51.51,3.07,2.93,4.66,3.27,2.18,5.34,3.67,6.2,4.47,3.77,3.54,5,7.4,3.7,11.6-1.15,3.71-3.61,6.27-7.36,7.68-3.84,1.44-8.27,1.39-13.26-.17-2.23-.69-4.5-1.69-6.8-2.99-2.31-1.3-3.9-2.47-4.77-3.53-.66-.82-1.04-2.26-1.13-4.34-.09-2.08.14-4.01.69-5.78.26-.85.64-1.44,1.12-1.77.61-.42,1.24-.53,1.9-.33.66.21,1.19.74,1.59,1.61.25.5.73,1.99,1.44,4.48.34,1.18,1.11,2.3,2.31,3.38,1.2,1.08,2.55,1.85,4.05,2.32,1.29.4,2.41.49,3.36.25.95-.23,1.54-.72,1.77-1.47.22-.7.09-1.39-.38-2.09-.47-.7-1.34-1.49-2.62-2.36-2.25-1.56-3.92-2.86-5.02-3.92-1.1-1.06-2.07-2.26-2.89-3.6-1.99-3.29-2.51-6.49-1.55-9.58.48-1.53,1.3-2.91,2.46-4.15,1.17-1.23,2.57-2.18,4.2-2.83,3.69-1.55,7.64-1.67,11.85-.36Z"/>
    <path class="st0" d="M513.3,994.07l-3.64,15.46c-.29,1.22-.39,2.15-.3,2.77.09.62.41,1.25.97,1.89.46.52.75.94.87,1.26.12.32.13.69.03,1.12-.54,2.29-3.71,2.75-9.51,1.39-3.12-.74-5.54-1.57-7.25-2.49-.58-.32-1.01-.75-1.28-1.29-.28-.53-.35-1.08-.21-1.65.11-.48.3-.83.56-1.05.26-.22.85-.53,1.79-.93.65-.28,1.19-.85,1.64-1.72s.89-2.22,1.32-4.04c.14-.59.36-1.69.65-3.32.3-1.62.46-2.57.49-2.85.06-.75-.3-1.43-1.1-2.03-.99-.74-1.37-1.58-1.15-2.52.26-1.12,1.18-1.78,2.74-1.99,2.17-.29,4.45-.44,6.85-.44,2.4,0,4.22.15,5.46.44.98.23,1.33.9,1.08,2ZM510.78,981.17c1.54.36,2.7.94,3.47,1.73.77.79,1.04,1.67.81,2.65-.32,1.37-1.26,2.29-2.81,2.76-2.46.75-5.23.76-8.3.04-1.3-.3-2.27-.8-2.91-1.47-.88-.88-1.18-1.89-.92-3.03.36-1.53,1.73-2.47,4.12-2.82,2.43-.37,4.61-.32,6.54.13Z"/>
    <path class="st0" d="M549.22,1008.75l-1.15,9.56c-.08.73-.05,1.28.08,1.65.13.37.58,1.12,1.34,2.24.22.33.29.76.21,1.28-.19,1.19-1.04,1.9-2.53,2.14s-4.07.06-7.73-.52c-2.48-.4-4.2-.9-5.16-1.5-.99-.62-1.4-1.43-1.24-2.44.06-.36.15-.62.29-.77.14-.15.56-.51,1.28-1.08.84-.64,1.61-3.1,2.3-7.38.4-2.48.41-4.37.02-5.65-.31-1.03-1.1-1.65-2.36-1.85-1.21-.19-2.1.06-2.67.76-.57.7-1.03,2.07-1.35,4.1l-.86,5.34c-.17,1.06-.22,1.8-.15,2.22s.39,1.25.97,2.51c.15.36.19.74.12,1.15-.17,1.06-1.04,1.73-2.59,1.99-1.56.27-3.9.15-7.03-.36-5-.81-7.34-2.24-7-4.31.07-.43.2-.75.39-.95.19-.2.6-.46,1.25-.78.52-.27.88-.61,1.08-1.03.2-.42.49-1.49.88-3.2.46-2.03.87-4.17,1.23-6.42.2-1.24.24-2.07.11-2.49-.13-.42-.6-.98-1.4-1.68-.7-.61-.99-1.27-.87-1.97.12-.72.53-1.26,1.23-1.62.7-.36,2.09-.73,4.17-1.12,1.83-.33,3.57-.58,5.24-.75,1.67-.16,2.8-.2,3.4-.1.54.09.96.36,1.27.81.3.46.41.95.33,1.49,0,.05-.05.28-.14.67-.04.14-.07.27-.09.37-.14.86.15,1.35.87,1.47.43.07.95-.2,1.54-.8,1.91-1.98,4.34-2.74,7.29-2.26,2.27.37,4.12,1.27,5.54,2.72,1,1.03,1.63,2.15,1.9,3.37.27,1.22.27,2.94.03,5.17Z"/>
    <path class="st0" d="M570.48,1000.41c3.23.25,6.03,1.28,8.37,3.09,2.23,1.73,3.25,3.73,3.07,6.02-.12,1.58-.77,2.82-1.93,3.72-1.09.85-2.35,1.22-3.79,1.11-1.51-.12-2.6-.75-3.28-1.9-.21-.36-.49-1.27-.83-2.72-.37-1.56-1.25-2.4-2.63-2.51-1-.08-1.87.29-2.62,1.11-.75.82-1.17,1.87-1.27,3.14-.17,2.18.46,4.18,1.9,5.99,1.17,1.46,2.71,2.27,4.64,2.42.91.07,1.68.05,2.31-.05s1.46-.36,2.5-.75c.26-.11.55-.15.86-.13.62.05,1.14.38,1.57,1s.61,1.32.55,2.1c-.06.82-.47,1.65-1.21,2.5-.74.85-1.68,1.57-2.83,2.15-2.48,1.27-5.32,1.78-8.54,1.53-3.74-.29-6.85-1.63-9.32-4.01-3.17-3.02-4.59-6.67-4.26-10.94.32-4.11,2.15-7.38,5.5-9.83,3.2-2.35,6.94-3.36,11.23-3.03Z"/>
    <path class="st0" d="M609.25,1016.64l-12.85-.21c-.56,0-.85.23-.86.72-.02,1.18.6,2.31,1.87,3.38,1.27,1.07,2.64,1.62,4.12,1.64.88.01,1.85-.14,2.92-.46,1.07-.32,1.96-.72,2.66-1.2.63-.43,1.12-.64,1.49-.63.47,0,.93.31,1.38.9.45.59.66,1.2.65,1.82-.02,1.31-.86,2.57-2.52,3.76-2.93,2.12-6.29,3.15-10.09,3.09-3.83-.06-7.02-1.23-9.57-3.49-1.24-1.11-2.26-2.45-3.05-4.01-1.04-2.08-1.54-4.25-1.51-6.53.05-3.06,1.02-5.8,2.92-8.21,1.64-2.09,3.71-3.63,6.2-4.63,1.87-.75,3.89-1.11,6.06-1.08,3.46.06,6.39,1.09,8.78,3.1,1.21,1,2.17,2.19,2.89,3.55.83,1.54,1.24,3.05,1.21,4.5-.02,1.18-.28,2.15-.79,2.9-.5.75-1.15,1.12-1.93,1.1ZM597.19,1011.33l2.76.04c1.17.02,1.76-.51,1.78-1.58.02-.98-.25-1.79-.81-2.42s-1.29-.95-2.2-.97c-1.02-.02-1.83.37-2.43,1.16-.56.74-.84,1.49-.86,2.26,0,.55.12.93.38,1.16.26.22.72.34,1.38.35Z"/>
    <path class="st0" d="M650.62,1025.78l-18.52,1.97c-1.63.17-2.5-.2-2.59-1.13-.05-.47.08-.93.38-1.37s1.3-1.66,3-3.63c3.15-3.67,5.41-7.02,6.8-10.04.72-1.54,1.02-2.84.91-3.89-.1-.91-.44-1.6-1.02-2.08-.58-.48-1.32-.67-2.21-.58-.83.09-1.46.27-1.87.54-.41.27-1.29,1.11-2.65,2.52-.36.37-.87.59-1.53.66-.85.09-1.67-.16-2.46-.74-.79-.59-1.22-1.27-1.3-2.05-.08-.71.17-1.54.72-2.51.56-.97,1.33-1.91,2.31-2.82,3.62-3.23,7.81-5.09,12.58-5.6,3.62-.39,6.7,0,9.22,1.14,1.14.52,2.09,1.32,2.87,2.39.77,1.07,1.23,2.23,1.36,3.48.34,3.17-1.49,6.85-5.48,11.03-1.42,1.47-2.1,2.53-2.03,3.18.05.51.33.91.84,1.22.51.3,1.1.42,1.77.35,1.59-.17,2.95-.94,4.07-2.3.57-.68.95-1.1,1.15-1.25.19-.15.47-.24.84-.28,1.59-.17,2.54,1.11,2.83,3.82.14,1.36.03,2.76-.34,4.22-.37,1.45-.94,2.73-1.72,3.84-.83,1.19-1.8,1.84-2.93,1.96-.45.05-.83,0-1.12-.17-.29-.16-.64-.49-1.04-.98-.38-.47-.74-.77-1.07-.88-.33-.11-.93-.12-1.78-.03Z"/>
    <path class="st0" d="M674.54,990.17c2.45-.47,4.93-.32,7.43.44,3.39,1.02,6.15,2.98,8.28,5.88,1.57,2.11,2.61,4.48,3.12,7.12.92,4.8-.17,9.08-3.25,12.84-2.37,2.87-5.35,4.64-8.95,5.33-3.97.76-7.61.11-10.9-1.95-3.9-2.43-6.34-6.2-7.32-11.32-.96-5-.19-9.21,2.29-12.63,2.18-3.04,5.28-4.94,9.29-5.7ZM675.46,998.29c-1.67.32-2.23,1.89-1.69,4.72.71,3.71,2.05,6.9,4.03,9.58.77,1.04,1.63,1.47,2.56,1.29,1.63-.31,2.17-1.91,1.62-4.79-.31-1.61-.81-3.3-1.51-5.07-.7-1.77-1.43-3.17-2.19-4.22-.83-1.16-1.78-1.67-2.82-1.52Z"/>
    <path class="st0" d="M700.69,1011.51c.25-.07.84-.17,1.79-.29.44-.05.79-.1,1.03-.17,1.49-.41,2.03-1.83,1.61-4.24-.24-1.37-1.23-5.18-2.95-11.44-.26-.95-.64-1.56-1.12-1.82s-1.24-.25-2.26.03c-.25.07-.59.19-1.03.37-.34.13-.64.23-.91.31-.6.17-1.13.13-1.58-.09-.46-.22-.76-.6-.91-1.13-.15-.56-.03-1.2.38-1.91.41-.71,1.06-1.41,1.94-2.11,4.39-3.48,9.4-5.99,15-7.53,1.53-.42,2.69-.55,3.48-.38.79.17,1.3.65,1.52,1.44.13.46.11.84-.05,1.16-.16.32-.54.72-1.14,1.21-.96.77-1.42,1.53-1.39,2.25.03.73.64,3.43,1.83,8.12,1.44,4.67,2.21,7.17,2.32,7.5.11.33.31.78.59,1.34.47.87,1.04,1.41,1.72,1.6s1.75.12,3.23-.21c1.67-.38,2.68.07,3.04,1.35.37,1.34-.56,2.54-2.78,3.6-3.09,1.47-6.35,2.68-9.78,3.62-2.25.62-4.41,1.07-6.49,1.36-2.61.34-4.68.45-6.21.32-1.49-.12-2.37-.67-2.64-1.66-.14-.53-.05-1.04.28-1.55.33-.51.82-.86,1.47-1.06Z"/>
    <path class="st0" d="M733.35,1002.14c.24-.09.83-.23,1.76-.44.44-.08.77-.17,1.01-.25,1.46-.53,1.88-1.98,1.26-4.36-.35-1.35-1.64-5.07-3.86-11.17-.34-.92-.76-1.5-1.27-1.72s-1.26-.15-2.25.21c-.24.09-.57.24-1,.45-.33.16-.62.29-.88.38-.58.21-1.11.22-1.59.04-.47-.19-.81-.54-.99-1.05-.2-.55-.12-1.19.23-1.93s.94-1.49,1.77-2.26c4.1-3.82,8.88-6.73,14.34-8.71,1.49-.54,2.64-.76,3.44-.66s1.35.54,1.63,1.31c.16.45.18.83.04,1.16-.13.33-.48.76-1.04,1.3-.89.85-1.3,1.64-1.21,2.36.09.72.92,3.37,2.48,7.94,1.81,4.54,2.78,6.97,2.92,7.29s.37.75.7,1.29c.54.83,1.15,1.32,1.84,1.46.69.14,1.76-.02,3.21-.47,1.63-.52,2.68-.15,3.13,1.1.47,1.3-.35,2.57-2.48,3.81-2.96,1.72-6.12,3.19-9.46,4.4-2.19.8-4.31,1.42-6.36,1.88-2.57.55-4.63.82-6.16.82-1.49,0-2.42-.48-2.76-1.44-.19-.51-.13-1.04.16-1.57.29-.53.75-.92,1.38-1.17Z"/>
  </g>
</svg>